<?xml version="1.0" standalone="no"?>
<!DOCTYPE svg PUBLIC "-//W3C//DTD SVG 20010904//EN"
 "http://www.w3.org/TR/2001/REC-SVG-20010904/DTD/svg10.dtd">
<svg version="1.0" xmlns="http://www.w3.org/2000/svg"
 width="1024.000000pt" height="1024.000000pt" viewBox="0 0 1024.000000 1024.000000"
 preserveAspectRatio="xMidYMid meet">

<g transform="translate(0.000000,1024.000000) scale(0.100000,-0.100000)"
fill="#000000" stroke="none">
<path d="M4965 8404 c-11 -1 -69 -8 -130 -14 -269 -28 -584 -121 -848 -249
-734 -357 -1305 -1040 -1530 -1831 -89 -313 -121 -550 -121 -885 1 -504 98
-921 315 -1355 142 -283 327 -538 559 -770 329 -330 691 -557 1121 -705 285
-98 536 -143 841 -152 494 -14 922 83 1383 314 110 55 305 170 305 180 0 3
-10 -1 -22 -9 -100 -64 -205 -122 -335 -185 -84 -40 -155 -73 -158 -73 -3 0
-26 -9 -51 -20 -24 -12 -49 -18 -53 -15 -5 3 -11 1 -13 -4 -5 -13 -170 -63
-177 -53 -11 15 -66 32 -90 27 -13 -2 -21 -2 -17 2 3 3 1 12 -6 20 -8 10 -8
17 1 26 10 9 11 8 6 -6 -7 -16 7 -22 42 -18 6 1 14 -3 18 -9 12 -19 22 -10 17
15 -2 15 0 25 8 25 6 0 9 -8 6 -17 -3 -10 3 -28 12 -41 17 -22 19 -23 33 -6 8
10 9 15 2 11 -6 -4 -15 -2 -19 4 -5 8 1 10 19 7 15 -3 24 -1 21 3 -3 5 -13 9
-23 9 -10 0 -25 10 -33 22 -14 21 -17 21 -34 8 -10 -8 -15 -10 -11 -3 4 6 3
14 -3 18 -5 3 -10 -3 -10 -14 0 -12 -4 -21 -9 -21 -11 0 -9 19 3 39 14 22 -29
39 -81 32 -7 -1 -13 3 -13 8 0 12 78 5 95 -9 8 -7 15 -7 19 -2 3 6 -1 12 -9
16 -8 3 -15 14 -15 24 0 10 -5 23 -12 30 -9 9 -6 10 12 7 30 -6 37 -14 20 -25
-11 -7 -11 -11 -1 -24 21 -25 34 -19 28 12 -6 27 -4 29 29 30 19 1 34 -3 34
-8 0 -21 16 -9 17 12 0 13 -1 18 -4 11 -5 -13 -34 -6 -45 11 -5 7 -8 5 -8 -5
0 -26 -36 -16 -64 18 -14 17 -26 38 -26 47 0 9 -4 16 -10 16 -5 0 -10 7 -10
16 0 11 -6 14 -22 8 -13 -3 -24 -11 -26 -15 -5 -12 -29 -11 -37 1 -3 6 1 7 9
4 9 -3 16 -2 16 4 0 12 51 23 77 16 17 -5 20 -12 16 -41 -3 -22 -1 -33 5 -29
5 3 12 -1 16 -9 7 -19 45 -20 52 -1 3 8 12 12 20 9 8 -3 14 0 14 7 0 9 -10 11
-32 6 -31 -5 -32 -5 -14 9 11 8 15 15 9 15 -6 0 -16 -6 -22 -14 -10 -11 -8
-17 6 -25 16 -9 16 -10 1 -11 -20 0 -31 15 -34 48 -2 21 -1 22 14 10 15 -12
16 -11 4 4 -14 18 -76 42 -89 35 -5 -2 -17 -1 -28 4 -18 7 -17 8 7 8 20 1 26
5 22 16 -4 8 -10 15 -16 15 -5 0 -6 -4 -3 -10 10 -16 -1 -11 -16 7 -12 14 -12
16 0 9 9 -6 12 -4 9 5 -3 8 -13 16 -23 18 -13 2 -16 -1 -12 -13 4 -9 2 -16 -3
-16 -6 0 -10 9 -10 20 0 29 36 26 65 -6 14 -15 25 -31 25 -35 0 -5 7 -9 15 -9
17 0 52 -18 73 -38 21 -19 27 -14 8 7 -10 11 -13 20 -7 22 6 2 2 10 -9 16 -16
11 -18 10 -13 -4 4 -11 3 -14 -5 -9 -7 4 -12 14 -12 22 0 8 -4 14 -10 14 -5 0
-10 -5 -10 -11 0 -5 -4 -7 -10 -4 -17 10 -11 25 10 25 11 0 20 5 20 11 0 6 -6
9 -12 6 -8 -2 -22 17 -35 47 l-22 51 6 -50 c6 -46 5 -49 -10 -36 -12 10 -14
17 -7 26 7 9 6 16 -5 25 -8 7 -15 22 -15 34 0 17 -2 18 -10 6 -8 -13 -10 -12
-10 3 0 9 0 20 1 23 0 4 -5 11 -13 15 -10 7 -9 9 5 9 10 0 20 -7 23 -15 4 -8
17 -15 30 -15 15 0 24 -6 24 -16 0 -11 6 -15 20 -11 11 3 22 1 25 -4 3 -4 12
-6 20 -3 8 4 12 11 9 16 -4 6 -10 5 -15 -3 -7 -11 -9 -11 -9 -1 0 8 -7 11 -18
8 -11 -4 -22 2 -30 14 -14 22 -9 25 19 10 13 -7 19 -7 19 0 0 5 -8 10 -17 11
-11 0 -13 3 -5 6 6 2 9 9 6 15 -3 5 -17 0 -31 -14 -25 -23 -25 -23 -19 -1 4
12 2 24 -5 29 -8 5 -10 3 -4 -7 6 -11 5 -12 -6 -2 -17 17 -43 17 -33 1 6 -10
4 -10 -7 -2 -8 6 -22 10 -31 9 -10 -2 -20 0 -23 4 -4 8 8 11 48 12 46 1 66 10
72 29 4 11 13 19 20 18 8 -2 14 1 15 6 0 5 -14 11 -31 13 -28 3 -30 1 -19 -12
10 -12 10 -19 2 -27 -9 -9 -12 -9 -12 0 0 6 -7 9 -15 6 -8 -4 -15 -1 -15 5 0
7 -9 21 -20 33 -11 12 -20 29 -20 37 1 9 8 4 16 -13 12 -20 18 -25 24 -16 4 7
13 10 19 6 6 -4 9 -2 6 6 -4 10 4 14 27 15 18 1 25 -1 16 -4 -28 -7 -21 -20
12 -20 17 0 30 5 30 10 0 6 -3 8 -6 4 -3 -3 -14 3 -24 13 -10 10 -27 16 -37
14 -25 -7 -79 41 -57 50 24 9 44 7 44 -5 0 -6 -7 -9 -15 -5 -18 7 -20 -5 -3
-22 17 -17 29 -15 22 3 -4 8 -1 15 5 15 6 0 11 -4 11 -10 0 -5 9 -10 20 -10
11 0 20 -4 20 -10 0 -5 6 -10 13 -10 6 1 1 10 -13 20 -14 11 -41 36 -60 54
-20 19 -47 36 -60 39 -14 3 34 5 107 5 72 0 136 3 142 6 5 3 12 -2 14 -11 4
-15 5 -15 6 -2 1 13 18 18 84 23 80 7 277 42 247 45 -8 0 -49 -6 -90 -14 -41
-8 -147 -19 -236 -26 -617 -43 -1234 152 -1719 544 -119 96 -328 316 -430 452
-572 763 -669 1736 -260 2600 274 577 774 1043 1363 1270 50 20 69 31 60 37
-9 6 -7 8 7 4 11 -3 65 8 120 24 l100 29 -185 -1 c-102 0 -194 -2 -205 -4z
m778 -4971 c-13 -2 -33 -2 -45 0 -13 2 -3 4 22 4 25 0 35 -2 23 -4z m107 -45
c0 -18 -2 -20 -9 -8 -6 8 -7 18 -5 22 9 14 14 9 14 -14z m-247 -25 c-7 -2 -19
-2 -25 0 -7 3 -2 5 12 5 14 0 19 -2 13 -5z m227 3 c0 -3 -4 -8 -10 -11 -5 -3
-10 -1 -10 4 0 6 5 11 10 11 6 0 10 -2 10 -4z m-15 -53 c-5 -10 -8 -21 -7 -24
1 -4 -10 -2 -23 5 -13 6 -19 13 -14 15 7 2 6 7 -2 13 -9 5 -5 6 14 2 18 -4 27
-2 27 7 0 7 3 10 6 6 4 -3 3 -14 -1 -24z m60 -13 c3 -5 1 -10 -4 -10 -6 0 -11
5 -11 10 0 6 2 10 4 10 3 0 8 -4 11 -10z m-105 -40 c0 -5 -2 -10 -4 -10 -3 0
-8 5 -11 10 -3 6 -1 10 4 10 6 0 11 -4 11 -10z m68 -9 c3 -10 0 -11 -9 -5 -8
5 -20 9 -27 10 -27 4 -24 13 4 11 15 -1 29 -8 32 -16z m-148 -12 c0 -6 -4 -7
-10 -4 -5 3 -10 11 -10 16 0 6 5 7 10 4 6 -3 10 -11 10 -16z m180 -27 c12 -13
11 -14 -10 -7 -14 4 -31 13 -39 21 -12 11 -11 12 10 7 13 -4 31 -13 39 -21z
m-107 -22 c3 -11 1 -20 -4 -20 -5 0 -9 9 -9 20 0 11 2 20 4 20 2 0 6 -9 9 -20z
m-43 -62 c0 -5 -7 -3 -15 6 -8 8 -15 18 -15 22 0 3 7 1 15 -6 8 -7 15 -17 15
-22z m50 7 c0 -8 -2 -15 -4 -15 -2 0 -6 7 -10 15 -3 8 -1 15 4 15 6 0 10 -7
10 -15z m50 11 c0 -3 -4 -8 -10 -11 -5 -3 -10 -1 -10 4 0 6 5 11 10 11 6 0 10
-2 10 -4z m24 -46 c-6 -6 -10 -3 -10 10 0 13 4 16 10 10 7 -7 7 -13 0 -20z
m-24 16 c0 -3 -4 -8 -10 -11 -5 -3 -10 -1 -10 4 0 6 5 11 10 11 6 0 10 -2 10
-4z m58 -61 c0 -21 -3 -23 -14 -14 -11 9 -11 15 -3 25 15 19 17 18 17 -11z
m-35 -15 c3 -11 1 -18 -4 -14 -5 3 -9 12 -9 20 0 20 7 17 13 -6z m-13 -35 c0
-8 -2 -15 -4 -15 -2 0 -6 7 -10 15 -3 8 -1 15 4 15 6 0 10 -7 10 -15z m117 -7
c-3 -8 -6 -5 -6 6 -1 11 2 17 5 13 3 -3 4 -12 1 -19z m-200 6 c-3 -3 -12 -4
-19 -1 -8 3 -5 6 6 6 11 1 17 -2 13 -5z m123 -54 c0 -3 -9 -6 -20 -7 -11 -1
-18 2 -15 8 4 5 -1 9 -9 9 -9 0 -16 4 -16 9 0 5 14 4 30 -2 17 -6 30 -14 30
-17z m-83 -22 c-3 -7 -5 -2 -5 12 0 14 2 19 5 13 2 -7 2 -19 0 -25z m133 -48
c0 -5 -5 -10 -11 -10 -5 0 -7 5 -4 10 3 6 8 10 11 10 2 0 4 -4 4 -10z m-66
-18 c3 -5 -1 -9 -9 -9 -8 0 -12 4 -9 9 3 4 7 8 9 8 2 0 6 -4 9 -8z m76 -32 c5
0 7 7 4 15 -4 8 -2 15 3 15 5 0 9 -17 10 -37 1 -33 -1 -35 -12 -19 -8 10 -17
16 -22 13 -4 -3 -9 7 -10 21 -1 22 1 23 8 9 6 -9 14 -17 19 -17z m-54 -1 c3
-6 1 -16 -6 -22 -10 -9 -11 -9 -6 0 3 6 -2 16 -11 22 -16 9 -16 10 -1 11 9 0
20 -5 24 -11z m-36 -21 c0 -6 -6 -5 -15 2 -8 7 -15 14 -15 16 0 2 7 1 15 -2 8
-4 15 -11 15 -16z m135 2 c3 -5 2 -10 -4 -10 -5 0 -13 5 -16 10 -3 6 -2 10 4
10 5 0 13 -4 16 -10z m-55 -14 c0 -3 -4 -8 -10 -11 -5 -3 -10 -1 -10 4 0 6 5
11 10 11 6 0 10 -2 10 -4z m-95 -26 c8 0 17 -4 20 -10 4 -6 -2 -7 -16 -1 -13
4 -24 13 -25 20 -1 6 0 7 3 1 2 -5 11 -10 18 -10z m75 -10 c0 -5 -8 -10 -17
-10 -15 0 -16 2 -3 10 19 12 20 12 20 0z m64 -12 c-3 -4 -12 -8 -20 -8 -8 0
-14 4 -14 8 0 4 9 8 19 8 11 0 17 -4 15 -8z m-39 -78 c3 -5 -1 -10 -9 -10 -9
0 -16 5 -16 10 0 6 4 10 9 10 6 0 13 -4 16 -10z m-104 -37 c13 -16 12 -17 -3
-4 -10 7 -18 15 -18 17 0 8 8 3 21 -13z m92 2 c4 -8 2 -17 -3 -20 -6 -4 -10
-1 -10 5 0 6 -4 9 -8 6 -5 -3 -9 1 -9 9 0 19 23 19 30 0z m-118 -55 c3 -6 -1
-7 -9 -4 -18 7 -21 14 -7 14 6 0 13 -4 16 -10z m115 -6 c0 -2 -7 -4 -15 -4 -8
0 -15 4 -15 10 0 5 7 7 15 4 8 -4 15 -8 15 -10z m108 1 c4 -4 -3 -5 -15 -2
-13 3 -23 1 -23 -4 0 -5 6 -9 13 -10 6 0 -4 -7 -23 -14 -43 -17 -53 -18 -45
-5 3 6 15 10 26 10 10 0 19 5 19 10 0 6 -4 10 -10 10 -5 0 -10 4 -10 8 0 11
57 8 68 -3z m-83 -5 c3 -5 1 -10 -4 -10 -6 0 -11 5 -11 10 0 6 2 10 4 10 3 0
8 -4 11 -10z m-36 -41 c-8 -5 -21 -8 -29 -8 -13 1 -13 1 0 6 8 3 19 13 24 22
7 12 10 13 14 2 2 -7 -2 -17 -9 -22z m-132 -25 c-3 -3 -12 -4 -19 -1 -8 3 -5
6 6 6 11 1 17 -2 13 -5z m-90 -20 c-3 -3 -12 -4 -19 -1 -8 3 -5 6 6 6 11 1 17
-2 13 -5z"/>
<path d="M5054 7231 c-214 -61 -354 -251 -354 -480 0 -140 46 -255 141 -351
50 -51 148 -110 222 -134 16 -5 17 -33 17 -401 0 -370 -1 -395 -17 -395 -30 0
-135 -54 -189 -98 -66 -52 -124 -140 -153 -230 -20 -61 -23 -87 -20 -180 4
-104 6 -113 46 -193 90 -182 258 -289 455 -289 130 0 286 71 363 165 34 41 45
62 26 50 -5 -3 -12 -1 -16 4 -3 6 3 8 14 6 25 -5 49 31 72 105 l17 55 438 5
439 6 -447 -1 c-383 0 -445 2 -435 14 10 11 9 13 -3 9 -8 -3 -19 1 -25 9 -11
14 -75 25 -75 13 0 -5 6 -11 13 -13 7 -3 5 -6 -5 -6 -12 -1 -18 6 -18 20 0 16
4 19 22 14 17 -6 20 -4 15 11 -6 17 -5 17 5 2 11 -15 13 -15 23 5 6 12 19 21
28 19 11 -2 17 4 17 18 0 11 -4 20 -10 20 -5 0 -10 -5 -10 -11 0 -5 -4 -7 -10
-4 -5 3 -10 -1 -10 -9 0 -8 -4 -17 -10 -21 -5 -3 -8 7 -7 23 1 21 6 28 17 25
10 -3 9 -1 -2 7 -10 6 -18 19 -18 28 0 14 -2 15 -9 2 -6 -8 -7 -27 -4 -42 4
-18 1 -28 -6 -28 -7 0 -10 4 -6 9 3 5 1 12 -4 16 -6 3 -8 12 -4 20 4 11 0 14
-13 10 -12 -4 -11 -1 4 6 22 12 31 39 11 39 -5 0 -8 4 -5 9 4 5 0 12 -6 15 -7
3 -1 4 14 2 15 -1 29 2 32 8 2 6 5 3 5 -8 1 -12 -4 -16 -14 -12 -22 8 -18 -7
5 -22 12 -7 18 -18 13 -25 -5 -8 -2 -8 9 1 11 9 18 10 23 2 3 -5 12 -10 18
-10 8 0 8 3 2 8 -5 4 -10 16 -10 27 0 20 8 20 455 25 l455 5 -452 3 c-435 2
-453 3 -453 21 0 43 -70 158 -134 219 -58 56 -168 122 -203 122 -10 0 -13 86
-13 398 l0 397 61 23 c33 13 62 22 64 20 2 -1 152 -149 332 -328 180 -179 436
-431 568 -560 132 -129 27 -21 -233 241 -260 261 -469 479 -465 484 4 4 3 5
-3 2 -10 -6 -113 90 -114 106 0 4 0 14 0 23 0 9 -7 14 -19 12 -11 -2 -31 8
-45 21 -29 27 -36 51 -8 30 15 -12 16 -12 6 1 -17 23 -23 59 -10 64 6 2 4 5
-5 5 -19 1 -32 38 -15 44 6 2 8 8 3 12 -4 5 -13 3 -19 -3 -9 -9 -9 -18 0 -37
7 -15 10 -31 7 -36 -4 -5 -1 -9 5 -9 7 0 10 -6 7 -12 -2 -7 -10 -12 -17 -10
-11 3 -11 0 -1 -12 16 -19 8 -32 -21 -39 -13 -2 -31 -8 -41 -12 -14 -6 -16 -4
-10 11 3 10 2 15 -3 11 -5 -3 -8 11 -6 34 4 34 1 39 -16 39 -12 0 -24 5 -27
10 -3 6 -1 10 6 10 8 0 8 4 -1 15 -7 8 -16 12 -21 9 -16 -9 -10 5 10 25 16 16
20 17 25 5 3 -9 -1 -14 -11 -14 -13 0 -14 -3 -5 -12 8 -8 15 -8 26 2 9 7 13
16 10 21 -3 5 -2 14 2 21 5 7 12 5 22 -8 14 -18 14 -18 9 4 -3 12 -1 20 4 17
5 -4 8 -16 7 -28 -1 -24 18 -77 28 -77 3 0 3 10 0 23 -14 45 -13 67 0 67 17 0
18 26 2 36 -8 5 -6 10 8 16 15 7 14 8 -6 4 -23 -5 -24 -4 -7 8 10 8 13 16 7
18 -8 2 -7 12 1 36 6 18 16 29 22 25 6 -3 7 -1 3 5 -4 7 -3 20 3 29 8 15 9 13
7 -10 -2 -16 -9 -32 -16 -37 -8 -5 -9 -9 -1 -14 6 -4 11 -3 11 3 0 6 6 9 13 7
6 -1 10 -1 7 1 -3 1 -4 40 -3 85 2 101 -8 142 -50 204 -24 36 -48 57 -97 82
-60 31 -70 34 -131 29 -39 -3 -81 -14 -102 -26 -46 -25 -48 -26 -58 -10 -5 8
0 19 11 29 13 11 16 21 9 31 -7 11 -9 11 -9 1 0 -7 -7 -20 -15 -29 -12 -12
-19 -13 -30 -3 -8 7 -15 9 -15 5 0 -4 10 -15 23 -26 17 -14 18 -18 4 -13 -12
4 -17 2 -15 -7 2 -8 -11 -18 -29 -23 -18 -6 -33 -14 -33 -19 0 -4 4 -6 9 -2 5
3 13 0 17 -6 4 -8 3 -9 -4 -5 -7 4 -12 0 -12 -10 0 -15 -3 -14 -18 4 -13 14
-26 19 -41 15 -12 -3 -29 1 -39 9 -9 9 -27 14 -39 13 -13 -1 -23 2 -23 7 0 13
62 2 70 -12 10 -16 67 -3 79 17 6 11 10 12 15 4 4 -6 11 -11 17 -11 5 0 4 9
-3 19 -7 11 -16 17 -20 15 -4 -3 -8 1 -8 8 0 7 -11 0 -25 -16 -15 -17 -25 -23
-25 -15 0 12 -2 12 -9 0 -6 -9 -11 -10 -15 -2 -4 6 -2 11 4 11 6 0 9 4 5 10
-3 5 -12 7 -20 3 -8 -3 -15 0 -15 7 0 6 4 9 9 6 5 -4 11 -1 13 6 2 6 12 9 21
5 11 -4 14 -12 10 -24 -6 -16 -5 -16 10 -4 18 14 18 44 -1 63 -8 8 -10 6 -6
-8 4 -16 0 -19 -25 -19 -17 0 -31 5 -30 10 1 6 5 9 10 7 6 -1 5 6 -1 17 -13
26 -13 34 2 25 7 -4 8 -3 4 5 -4 6 1 14 13 19 11 4 19 12 18 17 -2 19 94 81
160 105 36 13 105 26 152 30 l86 7 -75 1 c-44 0 -100 -7 -136 -17z m-253 -218
c-8 -15 -10 -15 -11 -2 0 17 10 32 18 25 2 -3 -1 -13 -7 -23z m470 -29 c72
-21 141 -91 163 -165 20 -65 20 -73 0 -138 -22 -75 -92 -144 -168 -166 -71
-21 -129 -13 -198 29 -127 76 -156 239 -63 360 18 24 30 48 27 52 -4 4 -1 4 6
0 7 -4 19 -2 27 4 18 15 93 38 126 39 14 1 50 -6 80 -15z m-510 -31 c-12 -20
-14 -14 -5 12 4 9 9 14 11 11 3 -2 0 -13 -6 -23z m251 -10 c-6 -2 -10 -8 -8
-12 3 -4 -1 -8 -9 -8 -11 0 -12 4 -4 14 6 7 17 13 23 12 7 0 6 -2 -2 -6z
m-242 -34 c12 -8 10 -9 -7 -4 -15 4 -23 2 -23 -6 0 -7 -3 -10 -6 -6 -7 7 4 27
14 27 4 0 14 -5 22 -11z m35 -9 c3 -5 1 -10 -4 -10 -6 0 -11 5 -11 10 0 6 2
10 4 10 3 0 8 -4 11 -10z m166 -9 c-7 -5 -13 -12 -13 -17 0 -5 -4 -16 -9 -24
-7 -12 -8 -10 -6 7 3 24 27 56 36 48 3 -3 0 -10 -8 -14z m-70 -5 c5 3 9 0 9
-6 0 -15 -23 -7 -26 8 -1 7 0 8 3 2 2 -5 9 -8 14 -4z m-146 -44 c-6 -6 -35 18
-35 29 0 5 9 1 20 -8 11 -9 17 -19 15 -21z m35 18 c0 -5 -2 -10 -4 -10 -3 0
-8 5 -11 10 -3 6 -1 10 4 10 6 0 11 -4 11 -10z m25 -9 c3 -5 1 -12 -5 -16 -5
-3 -10 1 -10 9 0 18 6 21 15 7z m55 -3 c0 -7 -4 -19 -9 -27 -7 -10 -9 -7 -8
12 2 26 17 39 17 15z m70 -40 c0 -18 -2 -20 -9 -8 -6 8 -7 18 -5 22 9 14 14 9
14 -14z m-223 -50 c-2 -13 -4 -5 -4 17 -1 22 1 32 4 23 2 -10 2 -28 0 -40z
m210 -20 c-3 -8 -6 -5 -6 6 -1 11 2 17 5 13 3 -3 4 -12 1 -19z m443 -188 c-13
-11 -25 -20 -28 -20 -3 0 3 9 13 20 10 11 23 20 28 20 6 0 0 -9 -13 -20z
m-290 -36 c0 -2 -9 0 -20 6 -11 6 -20 13 -20 16 0 2 9 0 20 -6 11 -6 20 -13
20 -16z m327 -11 c-9 -8 -48 8 -42 18 4 5 14 5 26 -2 12 -6 18 -13 16 -16z
m-60 11 c-3 -3 -12 -4 -19 -1 -8 3 -5 6 6 6 11 1 17 -2 13 -5z m-134 -31 c-7
-2 -21 -2 -30 0 -10 3 -4 5 12 5 17 0 24 -2 18 -5z m37 -30 c0 -10 -4 -14 -8
-8 -4 6 -11 13 -16 18 -5 4 -2 7 7 7 10 0 17 -8 17 -17z m-153 -25 c-3 -7 -5
-2 -5 12 0 14 2 19 5 13 2 -7 2 -19 0 -25z m78 -28 c3 -6 -1 -7 -9 -4 -18 7
-21 14 -7 14 6 0 13 -4 16 -10z m65 7 c0 -2 -10 -12 -21 -23 -22 -19 -22 -19
-8 4 12 19 29 30 29 19z m37 -4 c-4 -3 1 -12 10 -19 15 -11 14 -11 -10 -7 -29
6 -35 18 -14 26 18 8 21 8 14 0z m40 -78 c-21 -15 -22 -25 -2 -25 8 0 15 -4
15 -10 0 -16 -64 17 -78 42 l-14 23 21 -24 c12 -13 24 -21 28 -17 4 3 1 12 -5
18 -25 25 -13 37 20 21 28 -14 29 -17 15 -28z m-97 -5 c0 6 5 8 11 4 8 -5 6
-10 -5 -16 -11 -6 -22 -6 -32 2 -11 10 -14 10 -14 0 0 -8 -3 -11 -6 -7 -14 13
7 27 27 17 13 -8 19 -7 19 0z m-56 -45 c-4 -8 -11 -12 -16 -9 -6 4 -5 10 3 15
19 12 19 11 13 -6z m146 -212 c0 -119 -3 -214 -6 -210 -3 3 -6 71 -6 151 0 86
-3 144 -9 140 -5 -3 -9 -1 -9 5 0 5 4 12 9 15 5 3 8 27 6 53 -3 45 0 63 11 63
2 0 4 -97 4 -217z m211 200 c13 -16 12 -17 -3 -4 -10 7 -18 15 -18 17 0 8 8 3
21 -13z m-424 -95 c-2 -18 -4 -6 -4 27 0 33 2 48 4 33 2 -15 2 -42 0 -60z
m178 31 c11 -16 1 -19 -13 -3 -7 8 -8 14 -3 14 5 0 13 -5 16 -11z m-20 -37 c1
-11 -2 -19 -7 -16 -5 4 -7 12 -4 19 3 8 1 16 -5 19 -5 2 -4 3 2 2 7 -1 13 -12
14 -24z m-57 -27 c-3 -3 -9 2 -12 12 -6 14 -5 15 5 6 7 -7 10 -15 7 -18z m50
-12 c4 -5 14 -13 22 -16 12 -4 11 -6 -3 -6 -10 -1 -20 6 -24 15 -4 11 -8 12
-13 4 -5 -8 -9 -7 -13 3 -6 17 20 17 31 0z m-151 -25 c-3 -7 -5 -2 -5 12 0 14
2 19 5 13 2 -7 2 -19 0 -25z m0 -50 c-3 -7 -5 -2 -5 12 0 14 2 19 5 13 2 -7 2
-19 0 -25z m181 -40 c-6 -16 -23 -8 -20 8 2 9 0 21 -5 28 -4 6 0 3 10 -8 10
-10 16 -23 15 -28z m-181 -25 c-3 -10 -5 -2 -5 17 0 19 2 27 5 18 2 -10 2 -26
0 -35z m0 -55 c-3 -7 -5 -2 -5 12 0 14 2 19 5 13 2 -7 2 -19 0 -25z m0 -50
c-3 -7 -5 -2 -5 12 0 14 2 19 5 13 2 -7 2 -19 0 -25z m0 -175 c-2 -32 -3 -8
-3 52 0 61 1 87 3 58 2 -29 2 -78 0 -110z m103 143 c0 -3 -4 -8 -10 -11 -5 -3
-10 -1 -10 4 0 6 5 11 10 11 6 0 10 -2 10 -4z m108 -52 c-3 -27 -4 -26 -9 8
-3 22 -1 34 4 29 5 -5 7 -21 5 -37z m-63 -34 c3 -6 -1 -7 -9 -4 -18 7 -21 14
-7 14 6 0 13 -4 16 -10z m65 -35 c0 -19 -2 -35 -4 -35 -2 0 -6 16 -8 35 -2 19
0 35 4 35 4 0 8 -16 8 -35z m-1 -153 c-2 -109 -7 -98 -11 25 -2 44 0 79 4 76
5 -2 7 -48 7 -101z m-54 88 c3 -5 1 -10 -4 -10 -6 0 -11 5 -11 10 0 6 2 10 4
10 3 0 8 -4 11 -10z m-158 -42 c-3 -8 -6 -5 -6 6 -1 11 2 17 5 13 3 -3 4 -12
1 -19z m232 -182 c9 -10 8 -15 -2 -19 -8 -3 -13 3 -13 14 0 23 0 23 15 5z m31
-6 c0 -11 -2 -20 -4 -20 -2 0 -6 9 -9 20 -3 11 -1 20 4 20 5 0 9 -9 9 -20z
m85 -32 c6 -4 2 -8 -7 -8 -10 0 -18 7 -18 17 0 9 3 12 8 7 4 -5 12 -12 17 -16z
m-62 -3 c-3 -9 -8 -14 -10 -11 -3 3 -2 9 2 15 9 16 15 13 8 -4z m102 -15 c3
-6 -1 -7 -9 -4 -18 7 -21 14 -7 14 6 0 13 -4 16 -10z m16 -25 c19 -4 53 -39
54 -55 0 -3 4 -11 8 -17 5 -8 4 -13 -2 -13 -6 0 -13 10 -16 23 -8 32 -42 52
-61 36 -11 -9 -12 -15 -3 -26 10 -11 9 -12 -5 -7 -19 7 -22 30 -4 36 6 2 8 10
4 17 -6 9 -11 8 -23 -6 -13 -17 -13 -16 -3 5 6 12 15 20 20 17 6 -4 20 -8 31
-10z m-42 -89 c-3 -3 -11 5 -18 17 -13 21 -12 21 5 5 10 -10 16 -20 13 -22z
m-102 2 c-3 -8 -6 -5 -6 6 -1 11 2 17 5 13 3 -3 4 -12 1 -19z m133 2 c0 -5 -4
-10 -10 -10 -5 0 -10 5 -10 10 0 6 5 10 10 10 6 0 10 -4 10 -10z m66 -4 c15
-8 31 -13 35 -10 5 2 13 -6 19 -18 11 -23 11 -23 -5 -3 -17 20 -17 20 -10 -2
4 -14 2 -23 -4 -23 -6 0 -11 6 -11 13 0 6 -12 17 -26 24 -26 12 -26 12 -9 -7
11 -12 13 -20 6 -20 -6 0 -14 7 -18 16 -3 8 -12 13 -19 10 -8 -3 -14 -1 -14 4
0 6 7 10 16 10 8 0 12 5 9 10 -8 13 -2 13 31 -4z m-115 -23 c13 -16 12 -17 -3
-4 -10 7 -18 15 -18 17 0 8 8 3 21 -13z m-74 -35 c-3 -7 -5 -2 -5 12 0 14 2
19 5 13 2 -7 2 -19 0 -25z m73 -5 c0 -9 -1 -14 -3 -12 -1 2 -11 15 -22 28
l-20 24 23 -12 c12 -6 22 -19 22 -28z m50 27 c0 -5 -4 -10 -9 -10 -6 0 -13 5
-16 10 -3 6 1 10 9 10 9 0 16 -4 16 -10z m-183 -23 c124 -65 173 -216 108
-336 -65 -119 -199 -164 -321 -107 -191 89 -191 351 0 443 42 20 62 23 116 20
36 -2 79 -11 97 -20z m221 10 c7 -8 29 -12 54 -11 24 1 46 -3 50 -9 13 -21 -3
-26 -39 -10 -34 14 -36 14 -24 -1 11 -13 11 -16 -2 -16 -8 0 -17 6 -19 12 -4
10 -11 10 -33 0 -19 -9 -31 -10 -39 -2 -7 7 -5 10 8 10 9 0 15 4 12 9 -4 5 4
7 16 4 22 -4 23 -4 4 11 -11 9 -15 16 -9 16 6 0 15 -6 21 -13z m12 -53 c0 -10
6 -14 15 -10 8 3 15 1 15 -4 0 -6 -7 -10 -15 -10 -8 0 -15 -7 -15 -16 0 -14
-2 -14 -15 0 -17 17 -20 30 -5 21 6 -3 10 -1 10 4 0 6 -5 11 -11 11 -5 0 -7 5
-4 10 10 16 25 12 25 -6z m64 7 c3 -5 -1 -14 -8 -20 -12 -10 -14 -9 -11 6 2
10 4 19 4 21 2 5 10 2 15 -7z m47 -18 c1 -10 2 -36 3 -58 2 -22 1 -34 -1 -27
-3 6 -9 12 -14 12 -6 0 -7 -6 -3 -12 5 -10 4 -10 -6 -1 -10 9 -10 16 -2 25 16
20 16 22 4 44 -11 21 -7 34 10 34 4 0 8 -8 9 -17z m-154 1 c-3 -3 -12 -4 -19
-1 -8 3 -5 6 6 6 11 1 17 -2 13 -5z m123 -14 c0 -5 -2 -10 -4 -10 -2 0 -12 -3
-22 -7 -16 -6 -17 -5 -4 10 17 19 30 22 30 7z m-125 -29 c-6 -5 -25 10 -25 20
0 5 6 4 14 -3 8 -7 12 -15 11 -17z m-41 -26 c3 -8 1 -15 -3 -15 -5 0 -11 7
-15 15 -3 8 -1 15 3 15 5 0 11 -7 15 -15z m26 5 c0 -5 -2 -10 -4 -10 -3 0 -8
5 -11 10 -3 6 -1 10 4 10 6 0 11 -4 11 -10z m40 -4 c0 -2 -7 -7 -16 -10 -8 -3
-12 -2 -9 4 6 10 25 14 25 6z m-63 -48 c-3 -8 -6 -5 -6 6 -1 11 2 17 5 13 3
-3 4 -12 1 -19z m49 -26 c-17 -16 -18 -16 -5 5 7 12 15 20 18 17 3 -2 -3 -12
-13 -22z m-39 -29 c-3 -10 -5 -4 -5 12 0 17 2 24 5 18 2 -7 2 -21 0 -30z m53
-17 c0 -2 -7 -7 -16 -10 -8 -3 -12 -2 -9 4 6 10 25 14 25 6z m-63 -48 c-3 -8
-6 -5 -6 6 -1 11 2 17 5 13 3 -3 4 -12 1 -19z m173 -18 c11 -7 12 -12 3 -21
-8 -8 -14 -6 -22 10 -12 22 -5 27 19 11z m24 -69 c-8 -18 -10 -18 -24 -3 -13
14 -12 15 4 9 15 -6 17 -3 13 14 -4 16 -3 19 5 11 7 -7 8 -18 2 -31z m-234 -5
c0 -2 -8 -10 -17 -17 -16 -13 -17 -12 -4 4 13 16 21 21 21 13z m114 -41 c3 -8
1 -15 -4 -15 -6 0 -10 7 -10 15 0 8 2 15 4 15 2 0 6 -7 10 -15z m20 -130 c-4
-8 -11 -15 -16 -15 -6 0 -5 6 2 15 7 8 14 15 16 15 2 0 1 -7 -2 -15z m-24 -29
c0 -2 -7 -7 -16 -10 -8 -3 -12 -2 -9 4 6 10 25 14 25 6z"/>
<path d="M6988 7243 c7 -3 16 -2 19 1 4 3 -2 6 -13 5 -11 0 -14 -3 -6 -6z"/>
<path d="M7058 7243 c7 -3 16 -2 19 1 4 3 -2 6 -13 5 -11 0 -14 -3 -6 -6z"/>
<path d="M5325 7222 c33 -10 80 -29 104 -41 91 -47 196 -169 219 -255 21 -74
8 -72 319 -66 l278 5 -284 5 -284 5 -16 46 c-52 150 -215 293 -356 313 -31 5
-27 2 20 -12z"/>
<path d="M6840 7210 c-8 -5 -10 -10 -5 -10 6 0 17 5 25 10 8 5 11 10 5 10 -5
0 -17 -5 -25 -10z"/>
<path d="M6732 7143 c-24 -24 -24 -25 -2 -8 42 33 44 35 37 35 -4 0 -19 -12
-35 -27z"/>
<path d="M6653 7068 c-11 -13 -24 -30 -28 -38 -8 -16 -6 -14 34 33 14 15 22
27 19 27 -2 0 -14 -10 -25 -22z"/>
<path d="M4948 7033 c7 -3 16 -2 19 1 4 3 -2 6 -13 5 -11 0 -14 -3 -6 -6z"/>
<path d="M4920 7000 c20 -13 33 -13 25 0 -3 6 -14 10 -23 10 -15 0 -15 -2 -2
-10z"/>
<path d="M6595 6979 c-9 -17 -15 -33 -13 -35 3 -2 12 12 21 31 21 43 13 47 -8
4z"/>
<path d="M7028 7003 c7 -3 16 -2 19 1 4 3 -2 6 -13 5 -11 0 -14 -3 -6 -6z"/>
<path d="M7088 6993 c7 -3 16 -2 19 1 4 3 -2 6 -13 5 -11 0 -14 -3 -6 -6z"/>
<path d="M4955 6971 c-3 -5 -1 -12 5 -16 5 -3 10 1 10 9 0 18 -6 21 -15 7z"/>
<path d="M6880 6949 c-22 -18 -22 -19 -3 -10 12 6 25 16 28 21 9 15 3 12 -25
-11z"/>
<path d="M7210 6926 c0 -2 8 -10 18 -17 15 -13 16 -12 3 4 -13 16 -21 21 -21
13z"/>
<path d="M6298 6863 c6 -2 18 -2 25 0 6 3 1 5 -13 5 -14 0 -19 -2 -12 -5z"/>
<path d="M6353 6863 c9 -2 23 -2 30 0 6 3 -1 5 -18 5 -16 0 -22 -2 -12 -5z"/>
<path d="M6418 6863 c12 -2 32 -2 45 0 12 2 2 4 -23 4 -25 0 -35 -2 -22 -4z"/>
<path d="M6791 6804 c0 -11 3 -14 6 -6 3 7 2 16 -1 19 -3 4 -6 -2 -5 -13z"/>
<path d="M7281 6774 c0 -11 3 -14 6 -6 3 7 2 16 -1 19 -3 4 -6 -2 -5 -13z"/>
<path d="M6782 6745 c0 -16 2 -22 5 -12 2 9 2 23 0 30 -3 6 -5 -1 -5 -18z"/>
<path d="M6790 6694 c0 -10 5 -26 10 -34 8 -11 9 -7 4 15 -8 37 -14 45 -14 19z"/>
<path d="M5513 6644 c-3 -8 -1 -20 4 -25 5 -5 9 1 9 16 0 29 -4 32 -13 9z"/>
<path d="M5893 6633 c126 -2 328 -2 450 0 122 1 20 2 -228 2 -247 0 -347 -1
-222 -2z"/>
<path d="M6819 6622 c5 -10 18 -25 27 -33 11 -9 9 -2 -6 19 -26 35 -36 42 -21
14z"/>
<path d="M5650 6585 c-7 -22 -21 -53 -30 -70 l-17 -30 559 -555 c308 -305 564
-557 569 -559 6 -1 18 4 27 13 10 8 51 31 92 51 41 20 64 33 50 29 -14 -3 -58
-24 -99 -46 l-75 -39 -553 553 -554 554 26 57 c15 32 25 63 22 70 -2 6 -10 -6
-17 -28z"/>
<path d="M6561 6610 c0 -8 4 -22 9 -30 12 -18 12 -2 0 25 -6 13 -9 15 -9 5z"/>
<path d="M7204 6568 l-29 -33 33 29 c30 28 37 36 29 36 -2 0 -16 -15 -33 -32z"/>
<path d="M5467 6569 c12 -12 24 -21 27 -18 2 2 -8 13 -22 23 l-27 19 22 -24z"/>
<path d="M5435 6550 c3 -5 14 -10 23 -10 15 0 15 2 2 10 -20 13 -33 13 -25 0z"/>
<path d="M6580 6555 c0 -11 49 -95 56 -95 3 0 -7 21 -22 48 -33 56 -34 58 -34
47z"/>
<path d="M6886 6549 c6 -11 64 -42 69 -37 2 2 -14 13 -36 25 -21 12 -37 17
-33 12z"/>
<path d="M7120 6520 c-25 -11 -39 -19 -32 -19 16 -1 82 26 82 33 0 4 -1 6 -2
5 -2 -1 -23 -9 -48 -19z"/>
<path d="M5460 6521 c0 -5 7 -11 15 -15 8 -3 15 -1 15 3 0 5 -7 11 -15 15 -8
3 -15 1 -15 -3z"/>
<path d="M5430 6500 c0 -6 7 -10 15 -10 8 0 15 2 15 4 0 2 -7 6 -15 10 -8 3
-15 1 -15 -4z"/>
<path d="M6978 6503 c7 -3 16 -2 19 1 4 3 -2 6 -13 5 -11 0 -14 -3 -6 -6z"/>
<path d="M5555 6490 c3 -5 14 -10 23 -10 15 0 15 2 2 10 -20 13 -33 13 -25 0z"/>
<path d="M7023 6493 c9 -2 23 -2 30 0 6 3 -1 5 -18 5 -16 0 -22 -2 -12 -5z"/>
<path d="M7414 6443 c-15 -20 -23 -33 -16 -29 13 8 56 66 49 66 -3 0 -17 -17
-33 -37z"/>
<path d="M5450 6461 c0 -5 5 -13 10 -16 6 -3 10 -2 10 4 0 5 -4 13 -10 16 -5
3 -10 2 -10 -4z"/>
<path d="M5332 6430 c-6 -11 -12 -23 -12 -27 0 -5 4 -1 10 7 11 18 20 10 24
-22 1 -13 6 -29 10 -36 9 -15 36 -16 36 -1 0 5 -4 8 -9 4 -6 -3 -8 6 -5 20 3
19 0 25 -13 26 -10 0 -13 3 -6 6 10 3 10 9 0 24 -15 24 -19 24 -35 -1z"/>
<path d="M6685 6400 c27 -27 51 -50 54 -50 3 0 -17 23 -44 50 -27 28 -51 50
-54 50 -3 0 17 -22 44 -50z"/>
<path d="M5522 6426 c7 -8 15 -12 17 -11 5 6 -10 25 -20 25 -5 0 -4 -6 3 -14z"/>
<path d="M5471 6404 c0 -11 3 -14 6 -6 3 7 2 16 -1 19 -3 4 -6 -2 -5 -13z"/>
<path d="M7339 6363 l-24 -28 28 24 c15 14 27 26 27 28 0 8 -8 1 -31 -24z"/>
<path d="M5502 6344 c10 -10 20 -16 22 -13 3 3 -5 11 -17 18 -21 13 -21 12 -5
-5z"/>
<path d="M6754 6341 c7 -11 46 -35 46 -28 0 3 -12 12 -26 22 -15 9 -23 12 -20
6z"/>
<path d="M5354 6321 c5 -8 56 -3 56 5 0 2 -14 4 -31 4 -16 0 -28 -4 -25 -9z"/>
<path d="M6925 5870 c0 -217 1 -306 2 -197 2 108 2 286 0 395 -1 108 -2 19 -2
-198z"/>
<path d="M7151 6134 c0 -11 3 -14 6 -6 3 7 2 16 -1 19 -3 4 -6 -2 -5 -13z"/>
<path d="M7152 5580 c0 -14 2 -19 5 -12 2 6 2 18 0 25 -3 6 -5 1 -5 -13z"/>
<path d="M7152 5530 c0 -14 2 -19 5 -12 2 6 2 18 0 25 -3 6 -5 1 -5 -13z"/>
<path d="M7200 5450 c8 -5 20 -10 25 -10 6 0 3 5 -5 10 -8 5 -19 10 -25 10 -5
0 -3 -5 5 -10z"/>
<path d="M7250 5430 c8 -5 20 -10 25 -10 6 0 3 5 -5 10 -8 5 -19 10 -25 10 -5
0 -3 -5 5 -10z"/>
<path d="M7380 5335 c72 -80 77 -85 52 -50 -11 17 -40 48 -63 70 -37 34 -35
31 11 -20z"/>
<path d="M7467 5215 c9 -19 18 -33 21 -31 4 5 -26 66 -33 66 -3 0 3 -16 12
-35z"/>
<path d="M6970 5230 c-9 -6 -10 -10 -3 -10 6 0 15 5 18 10 8 12 4 12 -15 0z"/>
<path d="M7018 5233 c12 -2 32 -2 45 0 12 2 2 4 -23 4 -25 0 -35 -2 -22 -4z"/>
<path d="M7105 5220 c27 -12 43 -12 25 0 -8 5 -22 9 -30 9 -10 0 -8 -3 5 -9z"/>
<path d="M6897 5194 c-43 -29 -97 -99 -96 -123 0 -14 1 -14 6 -1 13 38 60 92
101 120 25 16 41 30 36 30 -5 0 -26 -12 -47 -26z"/>
<path d="M7179 5184 c18 -15 46 -45 62 -67 16 -22 29 -35 29 -30 0 15 -79 102
-104 114 -11 6 -6 -2 13 -17z"/>
<path d="M6576 5155 c-3 -9 -6 -22 -5 -28 0 -7 5 -1 10 12 5 13 8 26 5 28 -2
2 -6 -3 -10 -12z"/>
<path d="M7511 5084 c0 -11 3 -14 6 -6 3 7 2 16 -1 19 -3 4 -6 -2 -5 -13z"/>
<path d="M5710 5081 c0 -5 5 -13 10 -16 6 -3 10 -2 10 4 0 5 -4 13 -10 16 -5
3 -10 2 -10 -4z"/>
<path d="M7277 5010 c3 -36 7 -67 9 -69 8 -9 2 95 -6 114 -4 12 -6 -7 -3 -45z"/>
<path d="M6785 5010 c-10 -58 17 -138 65 -192 53 -61 113 -88 187 -86 l58 1
-65 6 c-146 13 -254 137 -235 269 8 53 -1 56 -10 2z"/>
<path d="M5696 5028 c3 -5 10 -6 15 -3 13 9 11 12 -6 12 -8 0 -12 -4 -9 -9z"/>
<path d="M5668 5023 c6 -2 12 -10 12 -17 0 -6 9 -12 21 -13 19 -2 18 0 -4 18
-14 10 -29 19 -34 18 -4 0 -2 -3 5 -6z"/>
<path d="M7522 5010 c0 -14 2 -19 5 -12 2 6 2 18 0 25 -3 6 -5 1 -5 -13z"/>
<path d="M5740 4998 c0 -5 8 -11 18 -14 9 -3 25 -10 35 -15 9 -5 17 -6 17 -1
0 4 -16 15 -35 24 -19 8 -35 11 -35 6z"/>
<path d="M5690 4970 c0 -5 -6 -10 -14 -10 -9 0 -12 -7 -9 -22 3 -17 2 -19 -5
-9 -6 8 -12 9 -16 3 -3 -6 -2 -13 3 -16 14 -9 41 5 41 21 0 10 6 13 18 8 32
-13 52 -14 52 -3 0 5 -7 8 -15 4 -9 -3 -24 3 -35 14 -11 11 -20 16 -20 10z"/>
<path d="M5701 4913 c-1 -18 19 -27 32 -13 9 10 8 12 -5 7 -9 -3 -19 -1 -22 6
-3 9 -5 9 -5 0z"/>
<path d="M7512 4900 c0 -14 2 -19 5 -12 2 6 2 18 0 25 -3 6 -5 1 -5 -13z"/>
<path d="M7255 4871 c-8 -26 -89 -99 -128 -116 -18 -8 -25 -14 -16 -15 32 0
159 112 159 140 0 16 -8 11 -15 -9z"/>
<path d="M6560 4858 c0 -19 30 -101 36 -96 1 2 -6 28 -16 58 -11 30 -19 47
-20 38z"/>
<path d="M7486 4805 c-9 -26 -7 -32 5 -12 6 10 9 21 6 23 -2 3 -7 -2 -11 -11z"/>
<path d="M6616 4718 c27 -53 126 -144 192 -177 82 -41 93 -39 15 3 -86 46
-134 87 -178 151 -43 62 -53 70 -29 23z"/>
<path d="M7410 4672 c-25 -31 -74 -76 -108 -99 -73 -49 -73 -59 -1 -13 49 32
128 111 148 148 18 34 10 26 -39 -36z"/>
<path d="M7160 4509 c-32 -12 -42 -18 -24 -15 31 5 109 35 89 34 -5 0 -35 -9
-65 -19z"/>
<path d="M6905 4500 c11 -5 27 -9 35 -9 9 0 8 4 -5 9 -11 5 -27 9 -35 9 -9 0
-8 -4 5 -9z"/>
<path d="M6993 4483 c20 -2 54 -2 75 0 20 2 3 4 -38 4 -41 0 -58 -2 -37 -4z"/>
<path d="M6815 3595 c-25 -12 -26 -14 -5 -9 28 7 60 23 45 23 -5 0 -23 -6 -40
-14z"/>
<path d="M6745 3570 c-13 -6 -15 -9 -5 -9 8 0 22 4 30 9 18 12 2 12 -25 0z"/>
<path d="M6645 3540 c-13 -5 -14 -9 -5 -9 8 0 24 4 35 9 13 5 14 9 5 9 -8 0
-24 -4 -35 -9z"/>
<path d="M6555 3515 c-22 -8 -31 -13 -20 -13 11 0 36 6 55 13 45 17 18 17 -35
0z"/>
<path d="M6468 3493 c6 -2 18 -2 25 0 6 3 1 5 -13 5 -14 0 -19 -2 -12 -5z"/>
<path d="M5890 3413 c8 -3 24 -15 35 -27 11 -11 30 -30 43 -40 20 -17 22 -17
16 -3 -5 13 -2 16 12 11 11 -3 8 1 -6 9 -14 9 -28 13 -32 11 -3 -2 -15 7 -26
21 -11 14 -28 25 -38 24 -14 0 -15 -2 -4 -6z"/>
<path d="M5942 3403 c8 -10 14 -11 16 -4 5 16 16 14 44 -12 20 -19 27 -20 37
-10 9 10 9 13 -4 13 -8 0 -15 5 -15 11 0 6 -7 9 -15 6 -8 -4 -17 -2 -19 2 -3
5 -17 9 -31 9 -21 0 -23 -3 -13 -15z"/>
<path d="M6070 3395 c0 -5 5 -17 10 -25 5 -8 10 -10 10 -5 0 6 -5 17 -10 25
-5 8 -10 11 -10 5z"/>
<path d="M6028 3333 c6 -2 18 -2 25 0 6 3 1 5 -13 5 -14 0 -19 -2 -12 -5z"/>
<path d="M7270 3273 l-55 -58 58 55 c53 50 62 60 54 60 -1 0 -27 -26 -57 -57z"/>
<path d="M6000 3299 c-12 -9 -12 -10 4 -5 15 5 17 2 13 -13 -3 -14 -1 -18 9
-14 8 3 14 9 14 14 0 4 6 6 14 3 8 -3 16 -2 19 3 3 5 -2 9 -11 9 -9 1 -24 4
-32 7 -8 4 -22 2 -30 -4z"/>
<path d="M6045 3230 c3 -5 11 -10 16 -10 6 0 7 5 4 10 -3 6 -11 10 -16 10 -6
0 -7 -4 -4 -10z"/>
<path d="M5985 3210 c-3 -5 -1 -18 4 -28 6 -11 8 -21 6 -24 -3 -3 5 -13 17
-24 l23 -19 -20 24 c-18 21 -18 24 -2 18 24 -9 21 5 -4 21 -16 11 -18 16 -9
28 8 9 9 14 2 14 -6 0 -14 -4 -17 -10z"/>
<path d="M6100 3204 c0 -2 9 -8 20 -14 11 -6 20 -7 20 -2 0 6 -9 12 -20 15
-11 3 -20 3 -20 1z"/>
<path d="M5940 3191 c0 -7 -5 -9 -12 -5 -7 5 -8 3 -3 -5 5 -9 10 -10 18 -2 6
6 8 14 4 18 -4 3 -7 1 -7 -6z"/>
<path d="M7149 3163 l-24 -28 28 24 c15 14 27 26 27 28 0 8 -8 1 -31 -24z"/>
<path d="M7084 3108 l-19 -23 23 19 c12 11 22 21 22 23 0 8 -8 2 -26 -19z"/>
<path d="M5905 3099 c-4 -6 -5 -12 -2 -15 2 -3 7 2 10 11 7 17 1 20 -8 4z"/>
<path d="M7034 3068 l-19 -23 23 19 c12 11 22 21 22 23 0 8 -8 2 -26 -19z"/>
<path d="M5952 3057 c8 -16 12 -17 19 -6 13 21 11 25 -10 25 -16 0 -18 -4 -9
-19z"/>
<path d="M6020 3050 c20 -13 33 -13 25 0 -3 6 -14 10 -23 10 -15 0 -15 -2 -2
-10z"/>
<path d="M6950 3009 c-30 -22 -62 -47 -70 -56 -18 -19 86 52 115 79 30 28 16
20 -45 -23z"/>
<path d="M5970 3020 c0 -5 5 -10 11 -10 5 0 7 5 4 10 -3 6 -8 10 -11 10 -2 0
-4 -4 -4 -10z"/>
<path d="M6030 3015 c0 -8 4 -15 10 -15 5 0 7 7 4 15 -4 8 -8 15 -10 15 -2 0
-4 -7 -4 -15z"/>
<path d="M6150 3020 c0 -5 5 -10 11 -10 5 0 7 5 4 10 -3 6 -8 10 -11 10 -2 0
-4 -4 -4 -10z"/>
<path d="M6060 3016 c0 -2 7 -9 15 -16 9 -7 15 -8 15 -2 0 5 -7 12 -15 16 -8
3 -15 4 -15 2z"/>
<path d="M6005 3000 c-3 -5 -1 -10 4 -10 6 0 11 5 11 10 0 6 -2 10 -4 10 -3 0
-8 -4 -11 -10z"/>
<path d="M6060 2980 c0 -5 5 -10 11 -10 5 0 7 5 4 10 -3 6 -8 10 -11 10 -2 0
-4 -4 -4 -10z"/>
<path d="M6020 2970 c0 -5 7 -7 15 -4 8 4 15 8 15 10 0 2 -7 4 -15 4 -8 0 -15
-4 -15 -10z"/>
<path d="M6057 2954 c-11 -11 -8 -26 3 -19 6 3 13 -1 16 -9 8 -20 21 -21 21
-1 0 8 -3 13 -5 10 -3 -3 -10 2 -16 11 -6 8 -15 12 -19 8z"/>
<path d="M6180 2950 c8 -5 20 -10 25 -10 6 0 3 5 -5 10 -8 5 -19 10 -25 10 -5
0 -3 -5 5 -10z"/>
<path d="M6066 2891 c-3 -5 1 -11 9 -14 9 -4 12 -1 8 9 -6 16 -10 17 -17 5z"/>
<path d="M6100 2875 c0 -2 10 -10 23 -16 20 -11 21 -11 8 4 -13 16 -31 23 -31
12z"/>
<path d="M6060 2826 c0 -2 9 -6 20 -9 11 -3 20 -1 20 4 0 5 -9 9 -20 9 -11 0
-20 -2 -20 -4z"/>
<path d="M6125 2770 c-3 -5 -1 -11 5 -15 5 -3 10 -2 10 4 0 6 7 8 15 5 8 -4
15 -2 15 3 0 12 -38 14 -45 3z"/>
<path d="M6045 2760 c-3 -5 1 -10 9 -10 9 0 16 5 16 10 0 6 -4 10 -9 10 -6 0
-13 -4 -16 -10z"/>
<path d="M6092 2741 c-10 -6 -10 -10 2 -20 12 -10 15 -9 13 8 -1 12 -1 21 -2
21 0 0 -6 -4 -13 -9z"/>
<path d="M6023 2710 c-26 -20 -17 -36 19 -35 18 1 28 -5 31 -17 3 -10 11 -18
18 -18 10 0 10 3 1 12 -13 13 -16 29 -4 27 17 -3 32 2 32 10 0 10 -25 9 -35
-1 -11 -10 -45 4 -45 19 0 11 4 11 20 3 11 -6 20 -7 20 -2 0 18 -36 19 -57 2z"/>
<path d="M6130 2710 c0 -5 6 -7 14 -4 8 3 16 -4 19 -17 4 -13 9 -20 12 -17 10
10 -14 48 -30 48 -8 0 -15 -4 -15 -10z"/>
<path d="M6200 2660 c0 -5 5 -10 11 -10 5 0 7 5 4 10 -3 6 -8 10 -11 10 -2 0
-4 -4 -4 -10z"/>
<path d="M6114 2644 c3 -9 6 -18 6 -20 0 -8 39 -4 44 5 4 5 -3 7 -14 4 -14 -4
-20 0 -20 11 0 9 -5 16 -11 16 -6 0 -8 -7 -5 -16z"/>
</g>
</svg>
